<svg xmlns="http://www.w3.org/2000/svg" viewBox="0 0 288 63.66"><path d="M21.62,40a15.41,15.41,0,0,0,2.25.1c5.21,0,8.3-2.83,8.3-8.4,0-4.86-2.76-7.63-7.78-7.63a13.13,13.13,0,0,0-2.73.22Zm-4-18.6A41.23,41.23,0,0,1,24,20.89c4.1,0,6.94.86,9,2.54a9.87,9.87,0,0,1,3.37,8.08A11.39,11.39,0,0,1,33,40.24c-2.19,2-5.63,3-9.94,3A42.54,42.54,0,0,1,17.65,43Z" style="fill:#003a70"/><polygon points="59.87 33.28 51.6 33.28 51.6 39.72 60.85 39.72 60.85 43.02 47.59 43.02 47.59 21.06 60.37 21.06 60.37 24.34 51.6 24.34 51.6 30.02 59.87 30.02 59.87 33.28" style="fill:#003a70"/><path d="M73.3,38.64a11,11,0,0,0,5.31,1.41c2.58,0,4-1.2,4-3s-1.13-2.65-3.92-3.66c-3.61-1.3-5.91-3.22-5.91-6.38,0-3.59,3-6.32,7.75-6.32a11.56,11.56,0,0,1,5.27,1.13l-1,3.22a9.23,9.23,0,0,0-4.37-1c-2.54,0-3.64,1.37-3.64,2.64,0,1.69,1.27,2.48,4.19,3.61,3.82,1.44,5.63,3.38,5.63,6.52,0,3.52-2.67,6.61-8.34,6.61A13,13,0,0,1,72.38,42Z" style="fill:#003a70"/><path d="M90.87,19.88h4v9.45H95a5.78,5.78,0,0,1,4.73-2.54c2.7,0,5.53,1.8,5.53,6.87V43h-4V34.12c0-2.32-.84-4-3.06-4A3.31,3.31,0,0,0,95,33.43V43h-4Z" style="fill:#003a70"/><path d="M118.72,35.26c-2.83-.07-5.53.56-5.53,3a2.1,2.1,0,0,0,1.94,2.25h.31a3.23,3.23,0,0,0,3.12-2.19,2.87,2.87,0,0,0,.13-.87Zm3.94,4a26.82,26.82,0,0,0,.22,3.8h-3.6L119,41.25h-.09a5.87,5.87,0,0,1-4.69,2.12,4.7,4.7,0,0,1-5-4.41c0-.11,0-.21,0-.32,0-4,3.54-6,9.41-6v-.27c0-1-.42-2.77-3.22-2.77a8.42,8.42,0,0,0-4.27,1.13l-.78-2.61a11.35,11.35,0,0,1,5.73-1.41c5.08,0,6.55,3.23,6.55,6.68Z" style="fill:#003a70"/><path d="M129.77,27.15l1.66,7.2c.36,1.7.72,3.37,1,5.15h.05c.33-1.73.86-3.49,1.31-5.12l2.06-7.23h3.25l2,7c.48,1.86.91,3.58,1.27,5.31h.07c.26-1.73.62-3.45,1-5.31l1.77-7h3.94L144.2,43h-3.71l-1.89-6.49a49.48,49.48,0,0,1-1.2-5.09h-.12a42,42,0,0,1-1.12,5.09l-2,6.44h-3.74L125.7,27.1Z" style="fill:#003a70"/><path d="M164.28,31.06h2.38c2.7,0,4.4-1.44,4.4-3.62,0-2.41-1.7-3.51-4.3-3.51a11.49,11.49,0,0,0-2.48.21Zm-4-9.71a38.5,38.5,0,0,1,6.07-.46c3.16,0,5.31.53,6.75,1.77A5.51,5.51,0,0,1,175,27.05a5.86,5.86,0,0,1-4,5.51v.1c1.57.58,2.51,2.11,3.06,4.23A46.31,46.31,0,0,0,175.81,43h-4.1a30.92,30.92,0,0,1-1.47-5.18c-.62-2.86-1.66-3.78-3.94-3.84h-2v9h-4Z" style="fill:#003a70"/><path d="M189.39,33.4c0-1.46-.6-3.87-3.28-3.87-2.48,0-3.52,2.25-3.68,3.87Zm-7,2.8c.1,2.87,2.34,4.11,4.88,4.11a11.79,11.79,0,0,0,4.4-.72l.59,2.78a15,15,0,0,1-5.54,1c-5.15,0-8.18-3.18-8.18-8,0-4.4,2.67-8.54,7.75-8.54s6.84,4.24,6.84,7.73a9.5,9.5,0,0,1-.12,1.68Z" style="fill:#003a70"/><path d="M197,39.33a9,9,0,0,0,4.07,1.12c1.77,0,2.55-.72,2.55-1.76s-.66-1.63-2.6-2.25c-3.11-1.13-4.4-2.78-4.37-4.64,0-2.8,2.31-5,6-5a9.48,9.48,0,0,1,4.21.94l-.79,2.84a7.12,7.12,0,0,0-3.38-.91c-1.43,0-2.25.68-2.25,1.66s.76,1.5,2.77,2.25c2.87,1,4.21,2.51,4.24,4.85,0,2.87-2.25,5-6.46,5a10.2,10.2,0,0,1-4.81-1.13Z" style="fill:#003a70"/><path d="M221.43,33.4c0-1.46-.62-3.87-3.29-3.87-2.48,0-3.52,2.25-3.68,3.87Zm-7,2.8c.1,2.87,2.34,4.11,4.88,4.11a11.79,11.79,0,0,0,4.4-.72l.59,2.78a15,15,0,0,1-5.54,1c-5.15,0-8.18-3.18-8.18-8,0-4.4,2.68-8.54,7.75-8.54s6.85,4.24,6.85,7.73a9.44,9.44,0,0,1-.13,1.68Z" style="fill:#003a70"/><path d="M237.66,35.26c-2.84-.07-5.54.56-5.54,3A2.09,2.09,0,0,0,234,40.48a1.82,1.82,0,0,0,.33,0,3.24,3.24,0,0,0,3.14-2.19,3.2,3.2,0,0,0,.12-.87Zm3.91,4a24.16,24.16,0,0,0,.23,3.8h-3.63l-.26-1.76h-.1a5.85,5.85,0,0,1-4.68,2.12,4.7,4.7,0,0,1-5-4.41c0-.11,0-.21,0-.32,0-4,3.54-6,9.41-6v-.27c0-1-.42-2.77-3.22-2.77a8.46,8.46,0,0,0-4.28,1.13l-.77-2.61A11.31,11.31,0,0,1,235,26.73c5.09,0,6.56,3.23,6.56,6.68Z" style="fill:#003a70"/><path d="M246.62,32.27c0-2.15,0-3.68-.13-5.12H250l.13,3h.12a4.74,4.74,0,0,1,4.33-3.37,4.32,4.32,0,0,1,.95.1v3.76a5.38,5.38,0,0,0-1.13-.14,3.51,3.51,0,0,0-3.57,3,6.45,6.45,0,0,0-.14,1.24V43h-4Z" style="fill:#003a70"/><path d="M269.75,42.52a11.4,11.4,0,0,1-4.5.85c-4.95,0-8.18-3.19-8.18-8.11,0-4.76,3.27-8.47,8.84-8.47a9.93,9.93,0,0,1,3.88.75l-.72,3a7.18,7.18,0,0,0-3-.62,5.14,5.14,0,0,0,0,10.27,7.63,7.63,0,0,0,3.16-.63Z" style="fill:#003a70"/><path d="M273.53,19.88h4v9.45h.07a5.49,5.49,0,0,1,2-1.81,5.34,5.34,0,0,1,2.73-.72c2.7,0,5.54,1.8,5.54,6.87V43h-4V34.13c0-2.32-.84-4-3.06-4a3.32,3.32,0,0,0-3.26,3.35V43h-4Z" style="fill:#003a70"/><polygon points="1.94 61.71 288 61.71 288 63.66 0 63.66 0.02 0 67.07 0 67.07 1.95 1.96 1.95 1.94 61.71" style="fill:#003a70"/></svg>